STARTFONT 2.1
COMMENT $XFree86$
COMMENT  
COMMENT  Copyright 1989 Dale Schumacher, dal@syntel.mn.org
COMMENT                 399 Beacon Ave.
COMMENT                 St. Paul, MN  55104-3527
COMMENT  
COMMENT  Permission to use, copy, modify, and distribute this software and
COMMENT  its documentation for any purpose and without fee is hereby
COMMENT  granted, provided that the above copyright notice appear in all
COMMENT  copies and that both that copyright notice and this permission
COMMENT  notice appear in supporting documentation, and that the name of
COMMENT  Dale Schumacher not be used in advertising or publicity pertaining to
COMMENT  distribution of the software without specific, written prior
COMMENT  permission.  Dale Schumacher makes no representations about the
COMMENT  suitability of this software for any purpose.  It is provided "as
COMMENT  is" without express or implied warranty.
COMMENT  
FONT -Schumacher-Clean-Medium-R-Normal--10-100-75-75-C-80-ISO646.1991-IRV
SIZE 10 75 75
FONTBOUNDINGBOX 8 10 0 -2
STARTPROPERTIES 19
FONTNAME_REGISTRY ""
FOUNDRY "Schumacher"
FAMILY_NAME "Clean"
WEIGHT_NAME "Medium"
SLANT "R"
SETWIDTH_NAME "Normal"
ADD_STYLE_NAME ""
PIXEL_SIZE 10
POINT_SIZE 100
RESOLUTION_X 75
RESOLUTION_Y 75
SPACING "C"
AVERAGE_WIDTH 80
CHARSET_REGISTRY "ISO646.1991"
CHARSET_ENCODING "IRV"
FONT_ASCENT 8
FONT_DESCENT 2
DEFAULT_CHAR 0
COPYRIGHT "Copyright 1989 Dale Schumacher."
ENDPROPERTIES
CHARS 128
STARTCHAR C000
ENCODING 0
SWIDTH 666 0
DWIDTH 8 0
BBX 8 10 0 -2
BITMAP
ff
c3
18
00
00
00
81
c3
81
ff
ENDCHAR
STARTCHAR C001
ENCODING 1
SWIDTH 666 0
DWIDTH 8 0
BBX 8 10 0 -2
BITMAP
08
14
22
77
14
14
14
14
1c
00
ENDCHAR
STARTCHAR C002
ENCODING 2
SWIDTH 666 0
DWIDTH 8 0
BBX 8 10 0 -2
BITMAP
00
1c
14
14
14
14
77
22
14
08
ENDCHAR
STARTCHAR C003
ENCODING 3
SWIDTH 666 0
DWIDTH 8 0
BBX 8 10 0 -2
BITMAP
00
00
08
0c
7a
41
7a
0c
08
00
ENDCHAR
STARTCHAR C004
ENCODING 4
SWIDTH 666 0
DWIDTH 8 0
BBX 8 10 0 -2
BITMAP
00
00
08
18
2f
41
2f
18
08
00
ENDCHAR
STARTCHAR C005
ENCODING 5
SWIDTH 666 0
DWIDTH 8 0
BBX 8 10 0 -2
BITMAP
3e
3e
5d
5d
6b
77
6b
5d
5d
3e
ENDCHAR
STARTCHAR C006
ENCODING 6
SWIDTH 666 0
DWIDTH 8 0
BBX 8 10 0 -2
BITMAP
7f
7f
7f
7f
7f
7e
7d
7d
7b
7b
ENDCHAR
STARTCHAR C007
ENCODING 7
SWIDTH 666 0
DWIDTH 8 0
BBX 8 10 0 -2
BITMAP
77
6b
6b
5d
5d
3e
5d
5d
6b
6b
ENDCHAR
STARTCHAR C010
ENCODING 8
SWIDTH 666 0
DWIDTH 8 0
BBX 8 10 0 -2
BITMAP
00
60
50
60
53
64
02
01
06
00
ENDCHAR
STARTCHAR C011
ENCODING 9
SWIDTH 666 0
DWIDTH 8 0
BBX 8 10 0 -2
BITMAP
00
50
50
70
57
52
02
02
02
00
ENDCHAR
STARTCHAR C012
ENCODING 10
SWIDTH 666 0
DWIDTH 8 0
BBX 8 10 0 -2
BITMAP
00
40
40
40
47
74
06
04
04
00
ENDCHAR
STARTCHAR C013
ENCODING 11
SWIDTH 666 0
DWIDTH 8 0
BBX 8 10 0 -2
BITMAP
00
50
50
50
27
22
02
02
02
00
ENDCHAR
STARTCHAR C014
ENCODING 12
SWIDTH 666 0
DWIDTH 8 0
BBX 8 10 0 -2
BITMAP
00
70
40
60
47
44
06
04
04
00
ENDCHAR
STARTCHAR C015
ENCODING 13
SWIDTH 666 0
DWIDTH 8 0
BBX 8 10 0 -2
BITMAP
00
30
40
40
46
35
06
05
05
00
ENDCHAR
STARTCHAR C016
ENCODING 14
SWIDTH 666 0
DWIDTH 8 0
BBX 8 10 0 -2
BITMAP
05
05
05
05
0d
0d
0d
19
79
71
ENDCHAR
STARTCHAR C017
ENCODING 15
SWIDTH 666 0
DWIDTH 8 0
BBX 8 10 0 -2
BITMAP
a0
a0
a0
a0
b0
b0
b0
98
9e
8e
ENDCHAR
STARTCHAR C020
ENCODING 16
SWIDTH 666 0
DWIDTH 8 0
BBX 8 10 0 -2
BITMAP
00
18
42
42
00
42
42
18
00
00
ENDCHAR
STARTCHAR C021
ENCODING 17
SWIDTH 666 0
DWIDTH 8 0
BBX 8 10 0 -2
BITMAP
00
00
02
02
00
02
02
00
00
00
ENDCHAR
STARTCHAR C022
ENCODING 18
SWIDTH 666 0
DWIDTH 8 0
BBX 8 10 0 -2
BITMAP
00
18
02
02
18
40
40
18
00
00
ENDCHAR
STARTCHAR C023
ENCODING 19
SWIDTH 666 0
DWIDTH 8 0
BBX 8 10 0 -2
BITMAP
00
18
02
02
18
02
02
18
00
00
ENDCHAR
STARTCHAR C024
ENCODING 20
SWIDTH 666 0
DWIDTH 8 0
BBX 8 10 0 -2
BITMAP
00
00
42
42
18
02
02
00
00
00
ENDCHAR
STARTCHAR C025
ENCODING 21
SWIDTH 666 0
DWIDTH 8 0
BBX 8 10 0 -2
BITMAP
00
18
40
40
18
02
02
18
00
00
ENDCHAR
STARTCHAR C026
ENCODING 22
SWIDTH 666 0
DWIDTH 8 0
BBX 8 10 0 -2
BITMAP
00
18
40
40
18
42
42
18
00
00
ENDCHAR
STARTCHAR C027
ENCODING 23
SWIDTH 666 0
DWIDTH 8 0
BBX 8 10 0 -2
BITMAP
00
18
02
02
00
02
02
00
00
00
ENDCHAR
STARTCHAR C030
ENCODING 24
SWIDTH 666 0
DWIDTH 8 0
BBX 8 10 0 -2
BITMAP
00
18
42
42
18
42
42
18
00
00
ENDCHAR
STARTCHAR C031
ENCODING 25
SWIDTH 666 0
DWIDTH 8 0
BBX 8 10 0 -2
BITMAP
00
18
42
42
18
02
02
18
00
00
ENDCHAR
STARTCHAR C032
ENCODING 26
SWIDTH 666 0
DWIDTH 8 0
BBX 8 10 0 -2
BITMAP
00
00
00
3e
01
7f
41
3e
00
00
ENDCHAR
STARTCHAR C033
ENCODING 27
SWIDTH 666 0
DWIDTH 8 0
BBX 8 10 0 -2
BITMAP
00
70
40
70
43
74
04
04
03
00
ENDCHAR
STARTCHAR C034
ENCODING 28
SWIDTH 666 0
DWIDTH 8 0
BBX 8 10 0 -2
BITMAP
00
00
07
0f
1f
18
18
10
1e
17
ENDCHAR
STARTCHAR C035
ENCODING 29
SWIDTH 666 0
DWIDTH 8 0
BBX 8 10 0 -2
BITMAP
00
00
f0
f8
ec
04
04
04
3c
54
ENDCHAR
STARTCHAR C036
ENCODING 30
SWIDTH 666 0
DWIDTH 8 0
BBX 8 10 0 -2
BITMAP
11
0b
0d
06
07
2e
39
38
00
00
ENDCHAR
STARTCHAR C037
ENCODING 31
SWIDTH 666 0
DWIDTH 8 0
BBX 8 10 0 -2
BITMAP
04
28
d8
28
d0
10
e0
00
00
00
ENDCHAR
STARTCHAR C040
ENCODING 32
SWIDTH 666 0
DWIDTH 8 0
BBX 8 10 0 -2
BITMAP
00
00
00
00
00
00
00
00
00
00
ENDCHAR
STARTCHAR !
ENCODING 33
SWIDTH 666 0
DWIDTH 8 0
BBX 8 10 0 -2
BITMAP
08
08
08
08
08
08
00
08
00
00
ENDCHAR
STARTCHAR "
ENCODING 34
SWIDTH 666 0
DWIDTH 8 0
BBX 8 10 0 -2
BITMAP
14
14
14
00
00
00
00
00
00
00
ENDCHAR
STARTCHAR #
ENCODING 35
SWIDTH 666 0
DWIDTH 8 0
BBX 8 10 0 -2
BITMAP
24
24
7e
24
24
7e
24
24
00
00
ENDCHAR
STARTCHAR $
ENCODING 36
SWIDTH 666 0
DWIDTH 8 0
BBX 8 10 0 -2
BITMAP
00
08
1e
28
1c
0a
3c
08
00
00
ENDCHAR
STARTCHAR %
ENCODING 37
SWIDTH 666 0
DWIDTH 8 0
BBX 8 10 0 -2
BITMAP
00
22
54
24
08
12
15
22
00
00
ENDCHAR
STARTCHAR &
ENCODING 38
SWIDTH 666 0
DWIDTH 8 0
BBX 8 10 0 -2
BITMAP
00
38
40
20
30
4a
44
3a
00
00
ENDCHAR
STARTCHAR '
ENCODING 39
SWIDTH 666 0
DWIDTH 8 0
BBX 8 10 0 -2
BITMAP
0c
08
10
00
00
00
00
00
00
00
ENDCHAR
STARTCHAR (
ENCODING 40
SWIDTH 666 0
DWIDTH 8 0
BBX 8 10 0 -2
BITMAP
04
08
08
10
10
10
08
08
04
00
ENDCHAR
STARTCHAR )
ENCODING 41
SWIDTH 666 0
DWIDTH 8 0
BBX 8 10 0 -2
BITMAP
10
08
08
04
04
04
08
08
10
00
ENDCHAR
STARTCHAR *
ENCODING 42
SWIDTH 666 0
DWIDTH 8 0
BBX 8 10 0 -2
BITMAP
00
08
08
6b
1c
08
14
22
00
00
ENDCHAR
STARTCHAR +
ENCODING 43
SWIDTH 666 0
DWIDTH 8 0
BBX 8 10 0 -2
BITMAP
00
08
08
08
7f
08
08
08
00
00
ENDCHAR
STARTCHAR ,
ENCODING 44
SWIDTH 666 0
DWIDTH 8 0
BBX 8 10 0 -2
BITMAP
00
00
00
00
00
00
18
10
20
00
ENDCHAR
STARTCHAR -
ENCODING 45
SWIDTH 666 0
DWIDTH 8 0
BBX 8 10 0 -2
BITMAP
00
00
00
00
7f
00
00
00
00
00
ENDCHAR
STARTCHAR .
ENCODING 46
SWIDTH 666 0
DWIDTH 8 0
BBX 8 10 0 -2
BITMAP
00
00
00
00
00
00
18
18
00
00
ENDCHAR
STARTCHAR /
ENCODING 47
SWIDTH 666 0
DWIDTH 8 0
BBX 8 10 0 -2
BITMAP
02
02
04
04
08
08
10
10
20
20
ENDCHAR
STARTCHAR 0
ENCODING 48
SWIDTH 666 0
DWIDTH 8 0
BBX 8 10 0 -2
BITMAP
3c
42
42
42
42
42
42
3c
00
00
ENDCHAR
STARTCHAR 1
ENCODING 49
SWIDTH 666 0
DWIDTH 8 0
BBX 8 10 0 -2
BITMAP
08
18
08
08
08
08
08
08
00
00
ENDCHAR
STARTCHAR 2
ENCODING 50
SWIDTH 666 0
DWIDTH 8 0
BBX 8 10 0 -2
BITMAP
3c
42
02
04
08
10
20
7e
00
00
ENDCHAR
STARTCHAR 3
ENCODING 51
SWIDTH 666 0
DWIDTH 8 0
BBX 8 10 0 -2
BITMAP
3c
42
02
1c
02
02
42
3c
00
00
ENDCHAR
STARTCHAR 4
ENCODING 52
SWIDTH 666 0
DWIDTH 8 0
BBX 8 10 0 -2
BITMAP
0c
0c
14
14
24
7e
04
0e
00
00
ENDCHAR
STARTCHAR 5
ENCODING 53
SWIDTH 666 0
DWIDTH 8 0
BBX 8 10 0 -2
BITMAP
7e
40
40
7c
02
02
42
3c
00
00
ENDCHAR
STARTCHAR 6
ENCODING 54
SWIDTH 666 0
DWIDTH 8 0
BBX 8 10 0 -2
BITMAP
1c
20
40
7c
42
42
42
3c
00
00
ENDCHAR
STARTCHAR 7
ENCODING 55
SWIDTH 666 0
DWIDTH 8 0
BBX 8 10 0 -2
BITMAP
7e
42
04
04
08
08
10
10
00
00
ENDCHAR
STARTCHAR 8
ENCODING 56
SWIDTH 666 0
DWIDTH 8 0
BBX 8 10 0 -2
BITMAP
3c
42
42
3c
42
42
42
3c
00
00
ENDCHAR
STARTCHAR 9
ENCODING 57
SWIDTH 666 0
DWIDTH 8 0
BBX 8 10 0 -2
BITMAP
3c
42
42
42
3e
02
04
38
00
00
ENDCHAR
STARTCHAR :
ENCODING 58
SWIDTH 666 0
DWIDTH 8 0
BBX 8 10 0 -2
BITMAP
00
00
18
18
00
00
18
18
00
00
ENDCHAR
STARTCHAR ;
ENCODING 59
SWIDTH 666 0
DWIDTH 8 0
BBX 8 10 0 -2
BITMAP
00
00
18
18
00
00
18
10
20
00
ENDCHAR
STARTCHAR <
ENCODING 60
SWIDTH 666 0
DWIDTH 8 0
BBX 8 10 0 -2
BITMAP
00
00
06
18
60
18
06
00
00
00
ENDCHAR
STARTCHAR =
ENCODING 61
SWIDTH 666 0
DWIDTH 8 0
BBX 8 10 0 -2
BITMAP
00
00
00
7f
00
00
7f
00
00
00
ENDCHAR
STARTCHAR >
ENCODING 62
SWIDTH 666 0
DWIDTH 8 0
BBX 8 10 0 -2
BITMAP
00
00
60
18
06
18
60
00
00
00
ENDCHAR
STARTCHAR ?
ENCODING 63
SWIDTH 666 0
DWIDTH 8 0
BBX 8 10 0 -2
BITMAP
3c
42
02
04
08
08
00
08
00
00
ENDCHAR
STARTCHAR @
ENCODING 64
SWIDTH 666 0
DWIDTH 8 0
BBX 8 10 0 -2
BITMAP
00
1c
22
49
55
4a
20
1c
00
00
ENDCHAR
STARTCHAR A
ENCODING 65
SWIDTH 666 0
DWIDTH 8 0
BBX 8 10 0 -2
BITMAP
00
08
08
1c
14
3e
22
63
00
00
ENDCHAR
STARTCHAR B
ENCODING 66
SWIDTH 666 0
DWIDTH 8 0
BBX 8 10 0 -2
BITMAP
00
7e
41
41
7e
41
41
7e
00
00
ENDCHAR
STARTCHAR C
ENCODING 67
SWIDTH 666 0
DWIDTH 8 0
BBX 8 10 0 -2
BITMAP
00
1e
21
40
40
40
21
1e
00
00
ENDCHAR
STARTCHAR D
ENCODING 68
SWIDTH 666 0
DWIDTH 8 0
BBX 8 10 0 -2
BITMAP
00
7c
42
41
41
41
42
7c
00
00
ENDCHAR
STARTCHAR E
ENCODING 69
SWIDTH 666 0
DWIDTH 8 0
BBX 8 10 0 -2
BITMAP
00
7f
40
40
7c
40
40
7f
00
00
ENDCHAR
STARTCHAR F
ENCODING 70
SWIDTH 666 0
DWIDTH 8 0
BBX 8 10 0 -2
BITMAP
00
7f
40
40
7c
40
40
40
00
00
ENDCHAR
STARTCHAR G
ENCODING 71
SWIDTH 666 0
DWIDTH 8 0
BBX 8 10 0 -2
BITMAP
00
1e
21
40
47
41
21
1f
00
00
ENDCHAR
STARTCHAR H
ENCODING 72
SWIDTH 666 0
DWIDTH 8 0
BBX 8 10 0 -2
BITMAP
00
41
41
41
7f
41
41
41
00
00
ENDCHAR
STARTCHAR I
ENCODING 73
SWIDTH 666 0
DWIDTH 8 0
BBX 8 10 0 -2
BITMAP
00
3e
08
08
08
08
08
3e
00
00
ENDCHAR
STARTCHAR J
ENCODING 74
SWIDTH 666 0
DWIDTH 8 0
BBX 8 10 0 -2
BITMAP
00
0e
02
02
02
42
42
3c
00
00
ENDCHAR
STARTCHAR K
ENCODING 75
SWIDTH 666 0
DWIDTH 8 0
BBX 8 10 0 -2
BITMAP
00
42
44
48
70
48
44
42
00
00
ENDCHAR
STARTCHAR L
ENCODING 76
SWIDTH 666 0
DWIDTH 8 0
BBX 8 10 0 -2
BITMAP
00
40
40
40
40
40
40
7e
00
00
ENDCHAR
STARTCHAR M
ENCODING 77
SWIDTH 666 0
DWIDTH 8 0
BBX 8 10 0 -2
BITMAP
00
41
63
55
49
41
41
41
00
00
ENDCHAR
STARTCHAR N
ENCODING 78
SWIDTH 666 0
DWIDTH 8 0
BBX 8 10 0 -2
BITMAP
00
41
61
51
49
45
43
41
00
00
ENDCHAR
STARTCHAR O
ENCODING 79
SWIDTH 666 0
DWIDTH 8 0
BBX 8 10 0 -2
BITMAP
00
1c
22
41
41
41
22
1c
00
00
ENDCHAR
STARTCHAR P
ENCODING 80
SWIDTH 666 0
DWIDTH 8 0
BBX 8 10 0 -2
BITMAP
00
7e
41
41
7e
40
40
40
00
00
ENDCHAR
STARTCHAR Q
ENCODING 81
SWIDTH 666 0
DWIDTH 8 0
BBX 8 10 0 -2
BITMAP
00
1c
22
41
41
41
22
1c
07
00
ENDCHAR
STARTCHAR R
ENCODING 82
SWIDTH 666 0
DWIDTH 8 0
BBX 8 10 0 -2
BITMAP
00
7e
41
41
7e
44
42
41
00
00
ENDCHAR
STARTCHAR S
ENCODING 83
SWIDTH 666 0
DWIDTH 8 0
BBX 8 10 0 -2
BITMAP
00
3e
41
40
3e
01
41
3e
00
00
ENDCHAR
STARTCHAR T
ENCODING 84
SWIDTH 666 0
DWIDTH 8 0
BBX 8 10 0 -2
BITMAP
00
7f
08
08
08
08
08
08
00
00
ENDCHAR
STARTCHAR U
ENCODING 85
SWIDTH 666 0
DWIDTH 8 0
BBX 8 10 0 -2
BITMAP
00
41
41
41
41
41
41
3e
00
00
ENDCHAR
STARTCHAR V
ENCODING 86
SWIDTH 666 0
DWIDTH 8 0
BBX 8 10 0 -2
BITMAP
00
63
22
22
14
14
08
08
00
00
ENDCHAR
STARTCHAR W
ENCODING 87
SWIDTH 666 0
DWIDTH 8 0
BBX 8 10 0 -2
BITMAP
00
41
41
41
49
55
63
41
00
00
ENDCHAR
STARTCHAR X
ENCODING 88
SWIDTH 666 0
DWIDTH 8 0
BBX 8 10 0 -2
BITMAP
00
41
22
14
08
14
22
41
00
00
ENDCHAR
STARTCHAR Y
ENCODING 89
SWIDTH 666 0
DWIDTH 8 0
BBX 8 10 0 -2
BITMAP
00
41
22
14
08
08
08
08
00
00
ENDCHAR
STARTCHAR Z
ENCODING 90
SWIDTH 666 0
DWIDTH 8 0
BBX 8 10 0 -2
BITMAP
00
7f
02
04
08
10
20
7f
00
00
ENDCHAR
STARTCHAR [
ENCODING 91
SWIDTH 666 0
DWIDTH 8 0
BBX 8 10 0 -2
BITMAP
0e
08
08
08
08
08
08
08
0e
00
ENDCHAR
STARTCHAR \
ENCODING 92
SWIDTH 666 0
DWIDTH 8 0
BBX 8 10 0 -2
BITMAP
20
20
10
10
08
08
04
04
02
02
ENDCHAR
STARTCHAR ]
ENCODING 93
SWIDTH 666 0
DWIDTH 8 0
BBX 8 10 0 -2
BITMAP
38
08
08
08
08
08
08
08
38
00
ENDCHAR
STARTCHAR ^
ENCODING 94
SWIDTH 666 0
DWIDTH 8 0
BBX 8 10 0 -2
BITMAP
08
14
22
00
00
00
00
00
00
00
ENDCHAR
STARTCHAR _
ENCODING 95
SWIDTH 666 0
DWIDTH 8 0
BBX 8 10 0 -2
BITMAP
00
00
00
00
00
00
00
00
7f
00
ENDCHAR
STARTCHAR `
ENCODING 96
SWIDTH 666 0
DWIDTH 8 0
BBX 8 10 0 -2
BITMAP
18
08
04
00
00
00
00
00
00
00
ENDCHAR
STARTCHAR a
ENCODING 97
SWIDTH 666 0
DWIDTH 8 0
BBX 8 10 0 -2
BITMAP
00
00
00
3f
41
41
43
3d
00
00
ENDCHAR
STARTCHAR b
ENCODING 98
SWIDTH 666 0
DWIDTH 8 0
BBX 8 10 0 -2
BITMAP
40
40
40
7e
41
41
41
7e
00
00
ENDCHAR
STARTCHAR c
ENCODING 99
SWIDTH 666 0
DWIDTH 8 0
BBX 8 10 0 -2
BITMAP
00
00
00
3e
40
40
40
3e
00
00
ENDCHAR
STARTCHAR d
ENCODING 100
SWIDTH 666 0
DWIDTH 8 0
BBX 8 10 0 -2
BITMAP
01
01
01
3f
41
41
41
3f
00
00
ENDCHAR
STARTCHAR e
ENCODING 101
SWIDTH 666 0
DWIDTH 8 0
BBX 8 10 0 -2
BITMAP
00
00
00
3e
41
7f
40
3e
00
00
ENDCHAR
STARTCHAR f
ENCODING 102
SWIDTH 666 0
DWIDTH 8 0
BBX 8 10 0 -2
BITMAP
1e
20
20
78
20
20
20
20
00
00
ENDCHAR
STARTCHAR g
ENCODING 103
SWIDTH 666 0
DWIDTH 8 0
BBX 8 10 0 -2
BITMAP
00
00
00
3f
41
41
41
3f
01
3e
ENDCHAR
STARTCHAR h
ENCODING 104
SWIDTH 666 0
DWIDTH 8 0
BBX 8 10 0 -2
BITMAP
40
40
40
7e
41
41
41
41
00
00
ENDCHAR
STARTCHAR i
ENCODING 105
SWIDTH 666 0
DWIDTH 8 0
BBX 8 10 0 -2
BITMAP
08
08
00
38
08
08
08
3e
00
00
ENDCHAR
STARTCHAR j
ENCODING 106
SWIDTH 666 0
DWIDTH 8 0
BBX 8 10 0 -2
BITMAP
02
02
00
1e
02
02
02
02
02
3c
ENDCHAR
STARTCHAR k
ENCODING 107
SWIDTH 666 0
DWIDTH 8 0
BBX 8 10 0 -2
BITMAP
40
40
40
46
48
70
48
46
00
00
ENDCHAR
STARTCHAR l
ENCODING 108
SWIDTH 666 0
DWIDTH 8 0
BBX 8 10 0 -2
BITMAP
18
08
08
08
08
08
08
1c
00
00
ENDCHAR
STARTCHAR m
ENCODING 109
SWIDTH 666 0
DWIDTH 8 0
BBX 8 10 0 -2
BITMAP
00
00
00
76
49
49
49
41
00
00
ENDCHAR
STARTCHAR n
ENCODING 110
SWIDTH 666 0
DWIDTH 8 0
BBX 8 10 0 -2
BITMAP
00
00
00
5e
61
41
41
41
00
00
ENDCHAR
STARTCHAR o
ENCODING 111
SWIDTH 666 0
DWIDTH 8 0
BBX 8 10 0 -2
BITMAP
00
00
00
3e
41
41
41
3e
00
00
ENDCHAR
STARTCHAR p
ENCODING 112
SWIDTH 666 0
DWIDTH 8 0
BBX 8 10 0 -2
BITMAP
00
00
00
7e
41
41
41
7e
40
40
ENDCHAR
STARTCHAR q
ENCODING 113
SWIDTH 666 0
DWIDTH 8 0
BBX 8 10 0 -2
BITMAP
00
00
00
3f
41
41
41
3f
01
01
ENDCHAR
STARTCHAR r
ENCODING 114
SWIDTH 666 0
DWIDTH 8 0
BBX 8 10 0 -2
BITMAP
00
00
00
2e
30
20
20
20
00
00
ENDCHAR
STARTCHAR s
ENCODING 115
SWIDTH 666 0
DWIDTH 8 0
BBX 8 10 0 -2
BITMAP
00
00
00
3e
40
3c
02
7c
00
00
ENDCHAR
STARTCHAR t
ENCODING 116
SWIDTH 666 0
DWIDTH 8 0
BBX 8 10 0 -2
BITMAP
10
10
10
7e
10
10
10
0e
00
00
ENDCHAR
STARTCHAR u
ENCODING 117
SWIDTH 666 0
DWIDTH 8 0
BBX 8 10 0 -2
BITMAP
00
00
00
41
41
41
43
3d
00
00
ENDCHAR
STARTCHAR v
ENCODING 118
SWIDTH 666 0
DWIDTH 8 0
BBX 8 10 0 -2
BITMAP
00
00
00
63
22
14
14
08
00
00
ENDCHAR
STARTCHAR w
ENCODING 119
SWIDTH 666 0
DWIDTH 8 0
BBX 8 10 0 -2
BITMAP
00
00
00
41
49
49
49
36
00
00
ENDCHAR
STARTCHAR x
ENCODING 120
SWIDTH 666 0
DWIDTH 8 0
BBX 8 10 0 -2
BITMAP
00
00
00
63
14
08
14
63
00
00
ENDCHAR
STARTCHAR y
ENCODING 121
SWIDTH 666 0
DWIDTH 8 0
BBX 8 10 0 -2
BITMAP
00
00
00
42
42
42
42
3e
02
3c
ENDCHAR
STARTCHAR z
ENCODING 122
SWIDTH 666 0
DWIDTH 8 0
BBX 8 10 0 -2
BITMAP
00
00
00
7e
04
18
20
7e
00
00
ENDCHAR
STARTCHAR {
ENCODING 123
SWIDTH 666 0
DWIDTH 8 0
BBX 8 10 0 -2
BITMAP
04
08
08
08
10
08
08
08
04
00
ENDCHAR
STARTCHAR |
ENCODING 124
SWIDTH 666 0
DWIDTH 8 0
BBX 8 10 0 -2
BITMAP
08
08
08
08
08
08
08
08
08
00
ENDCHAR
STARTCHAR }
ENCODING 125
SWIDTH 666 0
DWIDTH 8 0
BBX 8 10 0 -2
BITMAP
10
08
08
08
04
08
08
08
10
00
ENDCHAR
STARTCHAR ~
ENCODING 126
SWIDTH 666 0
DWIDTH 8 0
BBX 8 10 0 -2
BITMAP
00
31
49
46
00
00
00
00
00
00
ENDCHAR
STARTCHAR C177
ENCODING 127
SWIDTH 666 0
DWIDTH 8 0
BBX 8 10 0 -2
BITMAP
08
08
14
14
22
22
41
7f
00
00
ENDCHAR
ENDFONT
